<?xml version="1.0" encoding="UTF-8"?>
<!DOCTYPE svg PUBLIC "-//W3C//DTD SVG 1.1//EN" "http://www.w3.org/Graphics/SVG/1.1/DTD/svg11.dtd">
<!-- Creator: CorelDRAW X5 -->
<svg xmlns="http://www.w3.org/2000/svg" xml:space="preserve" width="200px" height="200px" style="shape-rendering:geometricPrecision; text-rendering:geometricPrecision; image-rendering:optimizeQuality; fill-rule:evenodd; clip-rule:evenodd"
viewBox="0 0 18.4504 18.4503"
 xmlns:xlink="http://www.w3.org/1999/xlink">
 <defs>
  <style type="text/css">
   <![CDATA[
    .fil0 {fill:#214477}
    .fil3 {fill:#D20001}
    .fil2 {fill:#FEFEFE}
    .fil1 {fill:white}
   ]]>
  </style>
 </defs>
 <g id="Слой_x0020_1">
  <metadata id="CorelCorpID_0Corel-Layer"/>
  <path class="fil0" d="M9.90808 17.2386l0.144916 0.365667c-0.111683,-0.0450001 -0.248536,-0.168778 -0.344964,-0.198305 -0.100787,0.06908 -0.215194,0.192204 -0.303124,0.241562l0.0935958 -0.389529c-0.0564408,-0.0193947 -0.293972,-0.165182 -0.329056,-0.208003l0.382446 -0.0278935c0.0553512,-0.0909808 0.0695159,-0.274904 0.106562,-0.382228l0.152979 0.363487 0.397918 -0.0247337c-0.0111138,0.0103511 -0.126284,0.111465 -0.147422,0.129552 -0.0572035,0.0491405 -0.102095,0.0888016 -0.15385,0.130424zm8.54228 -8.18097l0 0.390291c-0.00740922,0.341042 -0.0343221,0.687858 -0.0820462,1.05211 -0.0599275,0.456647 -0.157773,0.946309 -0.301054,1.38215 -0.136853,0.41655 -0.27218,0.827435 -0.465146,1.21805 -0.0317071,0.0641769 -0.0591648,0.13184 -0.0911987,0.195908l-0.296042 0.552096 -0.212688 0.348451c-0.0735474,0.110811 -0.144807,0.227615 -0.225654,0.335376 -0.0442374,0.0590558 -0.0755086,0.106998 -0.119201,0.167797 -0.115279,0.160279 -0.239274,0.31925 -0.369589,0.465582 -0.0888016,0.0996975 -0.166598,0.206477 -0.260848,0.300182 -0.0978452,0.0973004 -0.176187,0.188826 -0.27425,0.286889 -0.100024,0.100024 -0.193075,0.181635 -0.293318,0.280787 -0.0323608,0.032034 -0.0465255,0.0369371 -0.0784505,0.0651575l-0.222059 0.195473c-0.348669,0.310533 -0.901091,0.697665 -1.31895,0.92528 -0.066465,0.0362834 -0.116913,0.069298 -0.182506,0.104601 -0.504916,0.271853 -0.82068,0.394105 -1.36199,0.608318 -0.361526,0.143172 -0.941842,0.292446 -1.32527,0.358039 -0.766854,0.131078 -1.17523,0.160061 -1.96671,0.160061 -1.12751,0 -2.61741,-0.336466 -3.65329,-0.848246 -0.129008,-0.063741 -0.261502,-0.113317 -0.386151,-0.188063 -0.0659202,-0.0394432 -0.125194,-0.0631962 -0.187627,-0.0994796 -0.582822,-0.3381 -1.14222,-0.71074 -1.6479,-1.15747 -0.272724,-0.241126 -0.535425,-0.503282 -0.776551,-0.776224l-0.195473 -0.222059c-0.178148,-0.19994 -0.328838,-0.419274 -0.488137,-0.633924 -0.0793222,-0.106889 -0.150363,-0.221405 -0.225218,-0.335921 -0.0404238,-0.0617798 -0.0723488,-0.115497 -0.109613,-0.177494l-0.398245 -0.723815c-0.347688,-0.694723 -0.643076,-1.5458 -0.775026,-2.31756 -0.131078,-0.766854 -0.16017,-1.17523 -0.16017,-1.96671 0,-0.747459 0.125085,-1.51638 0.32339,-2.22102 0.0996975,-0.354117 0.207567,-0.708343 0.354771,-1.04143 0.0588379,-0.13293 0.106998,-0.263027 0.170194,-0.390836 0.0317071,-0.0641769 0.0591648,-0.13184 0.0911987,-0.195908 0.0307265,-0.0615619 0.0600364,-0.128899 0.0968646,-0.190242 0.0394432,-0.0659202 0.0631962,-0.125194 0.0993707,-0.187627 0.0334504,-0.0576393 0.0647217,-0.111247 0.0998065,-0.174226l0.557543 -0.851624c0.135,-0.187736 0.450982,-0.587289 0.630437,-0.765764 0.0978452,-0.0973004 0.176187,-0.188826 0.27425,-0.286889 0.191877,-0.191877 0.392579,-0.362289 0.593718,-0.541418 0.410885,-0.365776 1.00744,-0.763912 1.50156,-1.02988l0.556999 -0.278172c0.389093,-0.192204 0.813161,-0.335594 1.22786,-0.468415 0.29103,-0.09316 0.601781,-0.168342 0.902399,-0.21977 0.766854,-0.131078 1.17523,-0.160061 1.96671,-0.160061 1.1274,0 2.61741,0.336466 3.65329,0.848246 0.189698,0.0937048 0.390618,0.181199 0.573778,0.287543 0.582822,0.3381 1.14211,0.71074 1.64779,1.15747 0.272833,0.241126 0.535425,0.503282 0.77666,0.776224 0.0252785,0.0285473 0.0465255,0.0434747 0.0702786,0.0732205 0.0412955,0.0516466 0.0805207,0.0986079 0.125194,0.148838 0.0913077,0.102422 0.164201,0.204843 0.249516,0.311514 0.168451,0.210727 0.315001,0.430824 0.463839,0.658331 0.189153,0.28885 0.353899,0.593609 0.507858,0.901309 0.09839,0.196562 0.169976,0.383972 0.261066,0.587071 0.118221,0.26379 0.205824,0.552204 0.294189,0.828089 0.023862,0.074528 0.0394432,0.146441 0.0622156,0.224783 0.0641769,0.220969 0.118765,0.451199 0.157555,0.677616 0.0939227,0.549589 0.148947,1.06181 0.160061,1.5774zm-10.4447 7.91206l0.403802 0.0271308 0.145024 -0.359456c0.0525183,0.0806297 0.0726757,0.355969 0.116259,0.376236l0.374492 0.0362834c-0.00228814,0.00337773 -0.00610171,0.00370461 -0.00730026,0.00838985 -0.00294189,0.0110049 -0.0605812,0.045218 -0.0706055,0.0512108l-0.251042 0.149928 0.0894554 0.389529c-0.0922883,-0.0512108 -0.233172,-0.212252 -0.311187,-0.250606l-0.335485 0.200376 0.148838 -0.377652c-0.0592737,-0.0333415 -0.104928,-0.0815014 -0.157119,-0.123451l-0.145133 -0.127918zm3.08027 0.0713682l0.194274 0.338318 -0.358584 -0.14655c-0.0678815,0.0406417 -0.0900002,0.0941406 -0.137179,0.140993 -0.0576393,0.0573125 -0.0756176,0.0915256 -0.136744,0.146441l0.0317071 -0.387567c-0.101986,-0.0648306 -0.282967,-0.101659 -0.360981,-0.169867 0.49195,-0.0886927 0.376127,-0.0209201 0.425703,-0.479093 0.0331236,0.0338863 0.182506,0.284274 0.202991,0.336139l0.391599 -0.0822641c-0.0138378,0.0289831 -0.101005,0.128681 -0.123886,0.153414 -0.0268039,0.0289831 -0.0386805,0.0375909 -0.0626515,0.0673367l-0.0662471 0.0826999zm-4.09588 -0.301272l0.462858 0.130097 -0.0249516 0.110376 -0.469722 -0.12247 -0.0953392 0.354553 0.494238 0.13293 -0.0230993 0.110811 -0.630764 -0.165509 0.259105 -0.979215 0.614965 0.160497 -0.0217918 0.111792 -0.488681 -0.127809 -0.0768161 0.283947zm4.78483 -0.383209l-0.0538258 -0.120618c0.137506,-0.151017 0.505897,-0.361308 0.657132,-0.0640679 0.116477,0.228814 -0.123669,0.56833 -0.175969,0.779493l0.438996 -0.177603 0.0388984 0.106998 -0.59764 0.250933c-0.039988,-0.16224 -0.0593827,-0.0634142 0.0591648,-0.357713 0.0420582,-0.104383 0.110267,-0.251695 0.132276,-0.364577 0.0481599,-0.247228 -0.18839,-0.414153 -0.499032,-0.0528451zm-5.85807 0.441393c0.0884747,-0.0503391 0.148402,-0.118874 0.22402,-0.179238l0.421889 -0.36109c0.0365013,-0.0333415 0.0622156,-0.0667919 0.114734,-0.0499032 0.045218,0.0144916 0.104056,0.0355206 0.129552,0.0634142 -0.050557,0.129443 -0.331562,0.874287 -0.374165,0.930292l-0.115388 -0.0420582 0.301272 -0.773282c-0.0630873,0.0361744 -0.4354,0.358584 -0.530957,0.440521 -0.0392253,0.0335594 -0.0738742,0.0615619 -0.105145,0.090545 -0.125303,0.116259 -0.0927242,0.0587289 -0.256708,0.0122034l0.368717 -0.945656 0.120182 0.0404238 -0.298003 0.773827zm-0.43017 -0.108414l0.098499 0.0480509 -0.153959 0.29103 -0.100569 -0.0472882 0.100896 -0.196998 -0.628476 -0.342131 -0.103947 0.181962c-0.0405328,-0.00784505 -0.0648306,-0.0198305 -0.0982811,-0.0528451l0.152216 -0.283838c0.179238,0.0594916 0.267277,-0.0783416 0.38103,-0.245158 0.0945765,-0.138923 0.173245,-0.282095 0.257143,-0.433221l0.528233 0.286453 -0.432785 0.793985zm7.02677 -0.651902l-0.0353027 -0.0443463c-0.0139468,-0.0228814 -0.021247,-0.0395521 -0.0305085,-0.0613439 0.0353027,-0.0781236 0.167143,-0.185012 0.268693,-0.227615 0.161041,-0.0675546 0.286018,-0.0234262 0.364577,0.0780147 0.171175,0.220751 -0.0698428,0.580316 -0.0808476,0.809239 0.0787774,-0.0383536 0.349432,-0.204843 0.413718,-0.216284l0.0528451 0.0923973 -0.559396 0.308136c-0.0529541,-0.0680994 -0.0660292,-0.0828089 -0.0392253,-0.176514 0.0408596,-0.143063 0.139577,-0.454468 0.144589,-0.575958 0.00599275,-0.144589 -0.0901091,-0.260521 -0.243088,-0.213887 -0.136526,0.0415134 -0.174117,0.136308 -0.256054,0.22816zm0.72959 -0.422107c-0.0290921,-0.0192858 -0.0588379,-0.061126 -0.0750728,-0.103293 0.0642858,-0.0708234 0.200703,-0.211272 0.288959,-0.247228 0.0193947,0.0420582 0.465364,0.677289 0.502301,0.73057 0.0695159,-0.0294189 0.117022,-0.0840074 0.18523,-0.117349 0.0356296,0.0321429 0.0439105,0.0464166 0.0658113,0.0955571 -0.0607991,0.0281114 -0.177058,0.119637 -0.239383,0.163003 -0.0590558,0.0411865 -0.185121,0.137724 -0.244068,0.160388 -0.0195037,-0.0361744 -0.0341042,-0.0499032 -0.0524093,-0.0911987 0.0469614,-0.0488137 0.120945,-0.0784505 0.170521,-0.130533 -0.0191768,-0.0420582 -0.180654,-0.268802 -0.216829,-0.318923l-0.161259 -0.229904c-0.0473972,-0.0723488 -0.0253875,-0.0563318 -0.0706055,-0.0796491l-0.153196 0.16856zm-8.74364 -0.427337c0.0237531,-0.0459807 0.0418403,-0.0654844 0.0658113,-0.102422 0.179891,0.0381357 0.367301,0.178802 0.431914,0.298548 0.111683,0.20724 -0.042494,0.408161 -0.269892,0.345509 0.0403148,0.0944675 0.101332,0.151998 0.0299637,0.287761 -0.180872,0.344637 -0.666611,0.0317071 -0.739614,-0.176949 0.0278935,-0.0467434 0.0446732,-0.0757265 0.0831358,-0.105581 0.0530631,0.11615 0.0785595,0.157991 0.165073,0.22402 0.0619977,0.0473972 0.178802,0.125412 0.287652,0.0764893 0.100569,-0.045109 0.187192,-0.204189 -0.0152543,-0.361853 -0.0211381,-0.0165618 -0.0409686,-0.0286562 -0.0615619,-0.0427119l-0.050557 -0.0435836c-0.00141647,-0.00163439 -0.00435836,-0.00501212 -0.00631962,-0.00784505l0.0542616 -0.0796491c0.0696248,0.0199395 0.135763,0.104383 0.222168,0.133257 0.114625,0.0381357 0.202773,-0.0296369 0.207785,-0.13293 0.00937048,-0.192422 -0.365013,-0.288741 -0.404565,-0.312059zm9.44642 -0.156574c0.0175424,0.0368282 0.128463,0.158426 0.160606,0.180654 0.281877,-0.452071 0.903924,-0.0124213 0.575086,0.382228 -0.0500122,0.0600364 -0.192858,0.180436 -0.301599,0.205061 -0.0269129,-0.0428209 -0.0386805,-0.0527362 -0.0791043,-0.0873852 0.0230993,-0.0241889 0.0202664,-0.0188499 0.0697338,-0.037373 0.486502,-0.18218 0.209528,-0.647326 -0.0721309,-0.489335 -0.101659,0.0569856 -0.131623,0.112446 -0.196017,0.219226l-0.330255 -0.377216c0.0682084,-0.0619977 0.355751,-0.329056 0.415134,-0.350957l0.0579662 0.0807387c-0.0448911,0.0537168 -0.0907629,0.0866224 -0.146986,0.136417 -0.0420582,0.0374819 -0.12454,0.0973004 -0.152434,0.137942zm-10.0854 -0.0494674c0.0428209,0.0254964 0.131514,0.10885 0.177494,0.148075l0.173354 0.162349 -0.0591648 0.0805207c-0.0507749,-0.0172155 -0.0624335,-0.0357386 -0.100351,-0.0740922l-0.180981 -0.158644c-0.0339952,-0.0272398 -0.0543706,-0.0563318 -0.0872762,-0.0780147 -0.0443463,0.0357386 -0.205497,0.222712 -0.242107,0.269347 0.0488137,0.0580752 0.330037,0.301817 0.376236,0.333524l-0.0682084 0.0939227c-0.0430388,-0.0207022 -0.435073,-0.375146 -0.490425,-0.430606l0.496091 -0.565062c0.0519735,-0.0514287 0.129879,-0.156683 0.176949,-0.188281 0.0457628,0.0295279 0.178257,0.159516 0.236332,0.206804 0.0834626,0.0678815 0.154068,0.135 0.23448,0.2104l-0.0642858 0.0835716c-0.0782326,-0.0409686 -0.294189,-0.265533 -0.380485,-0.32241 -0.0365013,0.0199395 -0.0281114,0.0174334 -0.055896,0.0527362 -0.0548064,0.0697338 -0.108305,0.100242 -0.141756,0.17586zm-0.400316 -0.328294c0.106235,0.323173 -0.187627,0.444989 -0.350085,0.373294 -0.101659,-0.0448911 -0.346272,-0.313802 -0.404456,-0.398245l0.459044 -0.412628c0.0366102,-0.0322519 0.0563318,-0.0580752 0.0940317,-0.0885837 0.0696248,-0.0563318 0.121707,-0.124322 0.199177,-0.17063 0.0568766,0.0476151 0.287979,0.301272 0.323608,0.385279 0.0481599,0.113426 0.0208112,0.203971 -0.0495764,0.271635 -0.082591,0.0796491 -0.156901,0.0938137 -0.271744,0.039879zm12.0731 -0.533899l0.37057 0.133911 -0.384625 0.113644 -0.0197216 0.397047 -0.21879 -0.32241c-0.111138,0.000762713 -0.271853,0.0836805 -0.386914,0.0906539 0.0366102,-0.050448 0.0731115,-0.0952302 0.116259,-0.149274 0.0360654,-0.045327 0.0994796,-0.115061 0.123124,-0.160933 -0.0421672,-0.100242 -0.164092,-0.224565 -0.20517,-0.3308l0.364032 0.131078c0.0330146,-0.0237531 0.0975183,-0.113644 0.12977,-0.153959 0.0417313,-0.0520824 0.0813924,-0.106235 0.127046,-0.151344l-0.0155811 0.402386zm-12.686 -0.732423c0.0207022,-0.0257143 0.0740922,-0.061235 0.101768,-0.0725667 0.537059,0.387349 0.292337,0.860014 -0.0624335,0.659747 0.0706055,0.286018 -0.181853,0.421345 -0.37678,0.334831 -0.137942,-0.061126 -0.313911,-0.266514 -0.329601,-0.46471l0.101986 -0.069189c0.00305085,0.0047942 0.00490316,0.00631962 0.00544795,0.0113317l0.0157991 0.0619977c0.00512108,0.0287652 0.00849881,0.0514287 0.0162349,0.0764893 0.0309444,0.100787 0.161804,0.291356 0.301163,0.281768 0.0974094,-0.0066465 0.186647,-0.102966 0.16856,-0.21563 -0.0161259,-0.0996975 -0.103075,-0.18 -0.143717,-0.251804 0.0018523,-0.00272398 0.00523003,-0.0100242 0.00621067,-0.00773609l0.0271308 -0.0275666c0.0245158,-0.0198305 0.0245158,-0.0178693 0.0481599,-0.02931 0.0597096,0.0481599 0.101986,0.145787 0.166925,0.198088 0.10569,0.0849881 0.385606,0.00621067 0.152979,-0.309662 -0.0353027,-0.0480509 -0.0365013,-0.0584021 -0.0895643,-0.0933779 -0.0387894,-0.0256054 -0.0816103,-0.0467434 -0.110267,-0.0826999zm-1.1079 -0.234916c-0.0321429,-0.290594 0.226853,-0.493911 0.459916,-0.554275 0.604287,-0.156138 0.879082,0.762713 0.123451,0.959493 -0.306066,0.0796491 -0.554493,-0.14339 -0.583367,-0.405219zm13.809 -0.171175l0.386478 0.0793222 0.19678 -0.3381c0.0394432,0.0652665 0.0397701,0.292773 0.0497943,0.391272l0.387023 0.0831358 -0.360654 0.167143 0.0367192 0.396938c-0.0216829,-0.0205933 -0.0428209,-0.0361744 -0.0643948,-0.0602544 -0.0497943,-0.0555691 -0.164746,-0.183814 -0.190134,-0.228487 -0.119419,0.0215739 -0.254093,0.114625 -0.376236,0.149928 0.0350848,-0.107325 0.170848,-0.257797 0.189044,-0.355098 -0.063959,-0.0555691 -0.25431,-0.285691 -0.254419,-0.2858zm0.482471 -0.993162l0.383972 0.0219008c0.0785595,-0.090436 0.0841164,-0.257252 0.156683,-0.357604l0.104601 0.375909 0.388112 0.0237531 -0.321647 0.216284 0.0911987 0.389311c-0.0570945,-0.0308354 -0.106344,-0.0809566 -0.155702,-0.120618 -0.0540437,-0.0435836 -0.0999154,-0.0828089 -0.146768,-0.125412 -0.110484,0.039879 -0.240255,0.167252 -0.346054,0.203536l0.146332 -0.376454c-0.0483778,-0.023862 -0.113862,-0.082482 -0.152216,-0.116368 -0.0285473,-0.0253875 -0.045109,-0.0360654 -0.0715861,-0.0589468l-0.0566587 -0.0494674c-0.0180872,-0.0193947 -0.00490316,-0.000435836 -0.0202664,-0.0258233zm1.22993 -1.56117l0.135109 0.0235352c0.0584021,0.22195 0.0659202,0.384516 -0.0648306,0.564517 -0.250061,0.343875 -1.11868,0.162894 -0.922774,-0.491732 0.0350848,-0.117349 0.0738742,-0.155702 0.13707,-0.230775l0.138923 0.0189589c-0.0890195,0.100024 -0.199068,0.187627 -0.186756,0.399553 0.0221187,0.3831 0.822859,0.522568 0.828525,-0.0376998 0.00130751,-0.124431 -0.0384625,-0.154504 -0.0652665,-0.246356zm0.280787 -0.536623c-0.0959929,0.590667 -1.13524,0.494347 -1.04187,-0.164201 0.0844433,-0.596006 1.14886,-0.494238 1.04187,0.164201zm-15.267 -0.312277l-0.199286 -0.0473972c-0.0485957,0.0321429 -0.115497,0.112664 -0.163221,0.131296l-0.0137288 -0.198197c-0.0469614,-0.0481599 -0.128463,-0.0703875 -0.176514,-0.121489 0.267386,-0.0874941 0.178366,-0.0901091 0.22609,-0.230557l0.0254964 -0.0454359c0.0354117,0.058511 0.0786684,0.0886927 0.109831,0.151344l0.218899 -0.0117676c-0.0207022,0.0542616 -0.0916346,0.143281 -0.0953392,0.177712 -0.00403148,0.0376998 0.0533899,0.143608 0.0677725,0.194492zm1.6565 -0.218681c-0.0774699,-0.0150363 -0.275884,-0.0982811 -0.329383,-0.0696248 -0.0417313,0.0223366 -0.161041,0.150255 -0.232737,0.183378 -0.0144916,-0.464383 0.0220097,-0.25954 -0.248862,-0.471466l-0.0294189 -0.0270218c0.36218,-0.117894 0.29103,-0.0616708 0.378633,-0.416659 0.0740922,0.0562229 0.133475,0.179782 0.2104,0.247991l0.312059 -0.0166707c-0.026586,0.0625425 -0.152543,0.220315 -0.163003,0.258887 -0.0137288,0.0512108 0.085206,0.240146 0.102313,0.311187zm12.571 -0.777205l-0.00446732 -0.132276 1.01125 -0.0609081c0.0183051,0.228051 0.0726757,0.154177 -0.390291,0.430388 -0.0640679,0.0382446 -0.366429,0.215412 -0.400969,0.248209l0.830268 -0.0435836 0.00555691 0.133257 -1.00776 0.0590558 -0.0162349 -0.189698 0.809348 -0.486938 -0.836697 0.042494zm0.0261502 -0.910353c-0.0250606,0.135218 -0.0753997,0.492822 0.160606,0.487374 0.224565,-0.00523003 0.0988259,-0.335921 0.192858,-0.515703 0.0833537,-0.159516 0.32764,-0.198959 0.461006,-0.0507749 0.104274,0.115932 0.171937,0.530957 0.0652665,0.575522 -0.031925,0.013402 -0.071804,0.0155811 -0.106344,0.0193947 0.0249516,-0.116368 0.0533899,-0.194492 0.0326877,-0.326114 -0.0151453,-0.0963198 -0.0671188,-0.200267 -0.151453,-0.214649 -0.287107,-0.0490316 -0.171284,0.32034 -0.243959,0.497071 -0.0876031,0.213124 -0.515158,0.267386 -0.549154,-0.23764 -0.00272398,-0.0397701 -0.00446732,-0.144262 0.00381357,-0.180327 0.00980631,-0.042494 0.00119855,-0.0322519 0.0433657,-0.0448911 0.0188499,-0.00566587 0.0689711,-0.00926152 0.0913077,-0.00926152zm-0.396611 -0.832665l0.112664 -0.0353027 0.0955571 0.343657 0.864808 -0.243088 0.037373 0.127264 -0.862302 0.251695 0.0981721 0.351066 -0.113753 0.0263681 -0.232519 -0.82166zm-14.274 -0.179565c0.00817193,-0.0487047 0.0175424,-0.113753 0.0519735,-0.151562 0.0251695,0.0408596 0.0572035,0.0791043 0.0831358,0.120073l0.155702 -0.0071913c-0.0723488,0.193402 -0.103838,0.0271308 -0.0273487,0.277301 -0.056005,-0.00141647 -0.112555,-0.0417313 -0.157991,-0.0288741 -0.0223366,0.00631962 -0.0809566,0.0646127 -0.119855,0.0846612l-0.00599275 -0.155485 -0.1277 -0.0908718 0.148075 -0.0480509zm1.17992 -0.00599275c0.166925,-0.0459807 0.143826,-0.0323608 0.182071,-0.198414 0.00305085,0.00196126 0.00653754,0.00512108 0.00838985,0.00675546 0.135654,0.121271 0.00708234,0.11408 0.251695,0.105472 -0.110376,0.202773 -0.082482,0.0529541 -0.0330146,0.277628 -0.0598185,-0.0107869 -0.121489,-0.0436926 -0.161913,-0.0256054 -0.0242979,0.0110049 -0.074419,0.0634142 -0.112119,0.0828089l-0.00610171 -0.154504c-0.0390073,-0.026586 -0.0986079,-0.0551333 -0.129008,-0.0941406zm13.1283 -0.0138378l0.28155 -0.117349 -0.173354 -0.44488 0.105799 -0.037264 0.178584 0.440848c0.0645038,-0.0174334 0.297131,-0.103947 0.337555,-0.140448l-0.183705 -0.474517 0.104928 -0.0365013 0.237204 0.604505 -0.937811 0.372749c-0.0501212,-0.0939227 -0.211054,-0.490643 -0.237313,-0.595788l0.105581 -0.0384625 0.180981 0.467107zm0.2627 -1.57729l0.283729 0.558742 -0.900329 0.459698 -0.0573125 -0.114625c0.131405,-0.0829178 0.734057,-0.360545 0.792241,-0.422216l-0.220315 -0.433439 0.101986 -0.0481599zm-0.627822 0.0642858c0.0707144,-0.0471793 0.127373,-0.0812835 0.190134,-0.123124 0.063959,-0.042603 0.132712,-0.0759445 0.179456,-0.123777 -0.0677725,-0.139686 -0.195146,-0.278826 -0.259976,-0.414916l0.102966 -0.0564408c0.0222276,0.0545885 0.127046,0.207785 0.165182,0.264117 0.050448,0.0747459 0.124104,0.178475 0.163874,0.259431l-0.0220097 0.0217918c-0.00217918,0.0018523 -0.00523003,0.00435836 -0.00762713,0.00621067l-0.183705 0.116695c-0.116804,0.0765982 -0.580425,0.386151 -0.640243,0.404565l-0.0622156 -0.10569c0.0290921,-0.0387894 0.309335,-0.205715 0.374165,-0.248862zm-12.06 -0.838331c0.0488137,0.0126392 0.118765,0.0564408 0.154831,0.0484868 0.0235352,-0.00512108 0.0858597,-0.0543706 0.124758,-0.0696248 -0.0023971,0.143826 -0.0428209,0.129552 0.0580752,0.213342 0.0327967,0.0272398 0.0250606,0.0139468 0.0484868,0.0481599 -0.177167,0.0285473 -0.150908,0.0223366 -0.205497,0.172373 -0.00294189,-0.0023971 -0.0066465,-0.00566587 -0.00860776,-0.00762713l-0.0821551 -0.111356c-0.000980631,-0.00468524 -0.00468524,-0.00490316 -0.0071913,-0.00937048l-0.144589 -0.0095884c0.0198305,-0.0487047 0.0537168,-0.0781236 0.0978452,-0.111138l-0.0359565 -0.163656zm11.0226 -0.00871672c0.116586,-0.0549154 0.245703,-0.180218 0.383972,-0.218245l0.246901 -0.419928c0.0416224,0.0330146 0.066574,0.0651575 0.0884747,0.112446l-0.111901 0.187627c0.079867,-0.0390073 0.425158,-0.185666 0.501865,-0.190134 -0.0237531,0.0287652 -0.0446732,0.0830268 -0.06908,0.125521 -0.0761624,0.132712 -0.169649,0.246574 -0.249843,0.362398 0.0202664,0.0407507 0.0408596,0.053281 0.0628694,0.101114l0.279371 -0.0883658c0.0237531,0.0455449 0.0495764,0.061126 0.0734384,0.105799 -0.0592737,0.0406417 -0.631309,0.209419 -0.747241,0.244504 -0.0634142,0.100024 -0.399444,0.401514 -0.539892,0.593282 -0.553185,0.75574 -0.748004,1.41091 -1.09667,2.29577 -0.267277,0.678379 -0.781345,1.6285 -1.2053,2.20043l-0.483124 0.638609c0.0404238,0.21672 0.0567677,0.483015 0.0669009,0.70758 0.0197216,0.433984 -0.045327,0.272507 0.154613,0.630328 0.187083,0.334722 0.356187,0.673694 0.542834,1.00994 0.0902181,0.162458 0.185121,0.331562 0.267386,0.502301 0.0487047,0.101223 0.100569,0.156901 0.10046,0.298112 -0.000326877,0.360872 -0.436381,0.424395 -0.682519,0.486066 -0.114952,0.0287652 -0.534226,0.145569 -0.622483,0.145896 -0.0447822,-0.0450001 -0.0945765,-0.157337 -0.129008,-0.222821 -0.101114,-0.191659 -0.0415134,-0.141538 -0.0706055,-0.227506 -0.0173245,-0.0513197 -0.00217918,-0.0205933 -0.0260412,-0.0487047 -0.00969736,0.0666829 -0.0273487,0.252676 -0.0812835,0.28678l-0.378306 0 -0.0447822 0.170521c-0.0858597,-0.0256054 -0.127482,-0.116368 -0.216284,-0.164637 -0.018523,0.0173245 -0.0324698,0.0356296 -0.0521914,0.0549154l-0.0457628 -0.0178693c-0.00228814,-0.000980631 -0.00697338,-0.00315981 -0.00882568,-0.00403148 -0.0018523,-0.000762713 -0.00566587,-0.00315981 -0.00882568,-0.00403148 -0.0312712,0.0964288 -0.102639,0.228923 -0.147748,0.326005 -0.0803028,0.172591 -0.0869493,0.14132 -0.279698,0.189698 -0.252022,0.0633052 -0.512434,0.138051 -0.761515,0.191659 -0.0518645,0.192858 -0.104601,0.376998 -0.172155,0.557434l-0.140339 -0.00359565c-0.0209201,-0.0278935 -0.0197216,-0.026586 -0.0342131,-0.0649396 -0.0090436,-0.0241889 -0.0142736,-0.045327 -0.0221187,-0.0689711 -0.0168887,-0.0514287 -0.0298548,-0.0869493 -0.0438015,-0.139141 -0.0981721,-0.366756 -0.00337773,-0.262809 -0.457737,-0.376671 -0.132603,-0.0332325 -0.25747,-0.06385 -0.385824,-0.0974094 -0.193075,-0.0503391 -0.194601,-0.018632 -0.277955,-0.19155 -0.0526272,-0.109068 -0.0998065,-0.220097 -0.150799,-0.331344 -0.026586,0.0205933 -0.0242979,0.0271308 -0.0674457,0.0361744 -0.013402,-0.0191768 -0.0219008,-0.0376998 -0.0390073,-0.05862 -0.0951212,0.0570945 -0.132058,0.149274 -0.221405,0.165182l-0.023971 -0.0970825c-0.193729,0.0892375 -0.897387,0.545994 -1.15616,0.63959 0.0786684,-0.0460897 0.17586,-0.117131 0.261175,-0.174226l0.51919 -0.35488c0.0727846,-0.0509928 0.197761,-0.129008 0.250497,-0.180109l-0.289831 -0.00773609c-0.0447822,-0.0946854 -0.0496853,-0.184686 -0.0833537,-0.26695 -0.0359565,0.131731 -0.0147095,0.136308 -0.0805207,0.264335 -0.0339952,0.0660292 -0.0749638,0.163765 -0.124649,0.214431 -0.0939227,0.00152543 -0.489117,-0.106889 -0.607011,-0.136635 -0.196017,-0.0493584 -0.418839,-0.0780147 -0.54011,-0.19046 -0.32862,-0.304867 -0.0950123,-0.506877 0.157664,-1.00133 0.0807387,-0.157991 0.171393,-0.328729 0.25856,-0.484977 0.0873852,-0.156574 0.166707,-0.317834 0.255509,-0.475279 0.0655933,-0.116259 0.231211,-0.377543 0.231211,-0.502846 0,-0.240255 0.0129661,-0.457192 0.0325788,-0.692871 -0.150581,0.0594916 -0.327749,0.159189 -0.483342,0.23241 -0.947399,0.445643 -2.07349,0.89183 -3.06861,1.23734 -0.169758,0.0590558 -0.386478,0.140993 -0.559941,0.178802 0.00403148,0.15385 0.000326877,0.161259 -0.140121,0.198088l0.0260412 -0.156683 -0.747023 0.217591c0.0395521,0.0751817 0.0921794,0.100351 0.170848,0.15494 -0.163874,0.145787 -0.300618,-0.112119 -0.346272,-0.250715 -0.153087,-0.464275 0.371659,-0.736999 0.686115,-0.646999 0.196671,0.0563318 0.266078,0.190134 0.335158,0.37373 0.716951,-0.282422 1.42126,-0.548282 2.12002,-0.846612 0.39672,-0.169322 1.39468,-0.596006 1.78203,-0.801721 0.0710413,-0.0376998 0.183923,-0.0993707 0.253003,-0.120618 0.0569856,-0.450328 0.166272,-0.888016 0.319032,-1.27754 0.0386805,-0.0988259 0.079758,-0.185993 0.118983,-0.285255 0.0722398,-0.183596 0.0784505,0.0176514 0.181744,-0.209964 0.0180872,-0.039879 0.21247,-0.474844 0.236223,-0.507313 0.0141647,-0.0193947 0.00523003,-0.0090436 0.0192858,-0.0199395 0.042494,0.06908 0.111356,0.526817 0.139468,0.643294l0.177167 0.0348669c0.0018523,0.0731115 -0.0123124,0.166816 0.0225545,0.224347 0.0661381,-0.00446732 0.0842253,-0.0756176 0.137179,-0.178148 0.0368282,-0.0711503 0.0727846,-0.130533 0.108959,-0.204298 0.0675546,-0.137615 0.141865,-0.275884 0.214213,-0.412301 0.125848,-0.237204 0.158317,-0.240908 0.158535,-0.460134 0.000108959,-0.204407 0.000871672,-0.408814 0.00130751,-0.61333 0.00370461,-1.58623 -0.0738742,-3.15295 0.281659,-4.70801 0.0928331,-0.405872 0.266405,-1.03206 0.480727,-1.38629 0.101768,-0.168233 0.0260412,-0.368826 0.0788864,-0.527798 0.0483778,0.0812835 0.000544795,0.379395 0.0579662,0.483996 0.224891,0.40925 0.333306,0.712919 0.45109,1.19267 0.15287,0.622265 0.230013,1.21914 0.294516,1.88194 0.0663561,0.682846 0.0423851,1.44393 0.045109,2.13712l0.00337773 1.64485c0.00108959,0.0915256 0.0354117,0.121271 0.0720219,0.197434 0.0251695,0.0523003 0.0548064,0.125412 0.090436,0.164092 0.225763,-0.140666 0.667701,-0.500885 0.883222,-0.682846 0.0515376,-0.0434747 0.0896733,-0.0789953 0.140884,-0.120073 0.178802,-0.143608 0.390182,-0.346817 0.551987,-0.478657l1.08294 -0.978997c0.0471793,-0.0443463 0.0808476,-0.0882568 0.127482,-0.133148 0.177276,-0.170957 0.346272,-0.337337 0.525945,-0.505134 0.0464166,-0.0434747 0.0811745,-0.0892375 0.127918,-0.132712l0.272833 -0.249516c0.141974,-0.11517 0.561139,-0.507858 0.710958,-0.566587 -0.113426,-0.152652 -0.469287,-0.456865 -0.523003,-0.546539 0.0203753,-0.0395521 0.0418403,-0.0605812 0.0841164,-0.0775788l0.245594 0.246574c0.102857,-0.0786684 0.228705,-0.21563 0.328403,-0.310533 0.0792132,-0.0752907 0.240364,-0.276538 0.329492,-0.307156 0.0285473,0.0430388 0.053172,0.0483778 0.0740922,0.0964288 -0.0433657,0.0530631 -0.106998,0.106126 -0.158644,0.155811l-0.471466 0.470485c0.0323608,0.0650486 0.129334,0.13925 0.190787,0.195799zm-0.775026 -0.587289c0.0172155,-0.0334504 0.0539347,-0.0775788 0.0787774,-0.103729 0.0433657,-0.0458718 0.050448,-0.0568766 0.0847701,-0.0979542l0.331562 -0.372531c0.037155,-0.0392253 0.125303,-0.158862 0.169976,-0.185993 0.0300727,0.0161259 0.0709323,0.0580752 0.0939227,0.0817193 -0.0299637,0.0525183 -0.118983,0.147748 -0.16017,0.195037 -0.0579662,0.066574 -0.112119,0.118765 -0.166163,0.185775 -0.0663561,0.082373 -0.278826,0.300836 -0.32448,0.37994 -0.0655933,-0.0226635 -0.061126,-0.0408596 -0.108196,-0.0822641zm-0.217809 -1.29476c0.281005,-0.0642858 0.557217,0.188172 0.550025,0.459916 -0.00697338,0.258015 -0.239928,0.519844 -0.460243,0.563427 -0.28787,0.0569856 -0.554493,-0.189589 -0.549263,-0.459153 0.00523003,-0.270872 0.236986,-0.513306 0.45948,-0.56419zm-8.53454 0.408161c0.188281,0.0396611 0.0333415,0.104492 0.280025,-0.0235352 0.000217918,0.0536079 -0.0207022,0.124867 0.00337773,0.16638 0.0222276,0.0384625 0.0653754,0.042494 0.0987169,0.0913077 -0.159298,0.093051 -0.102095,-0.0678815 -0.208983,0.184468l-0.0764893 -0.131405 -0.160061 -0.0173245c0.03454,-0.0485957 0.0520824,-0.0670098 0.10046,-0.112337l-0.0370461 -0.157555zm7.64457 -1.0642l0.158644 0.0800849 -0.00969736 0.954917 0.398681 -0.727084c0.045218,0.0126392 0.085206,0.0325788 0.116041,0.0640679 -0.0183051,0.0539347 -0.463621,0.846939 -0.487265,0.883767l-0.159407 -0.08793 0.0138378 -0.947726c-0.0920704,0.145024 -0.363487,0.670207 -0.413391,0.728064l-0.108305 -0.0686442 0.490861 -0.879517zm-5.83007 0.0617798c0.0549154,0.0103511 0.15592,0.077034 0.19994,0.069189 0.0205933,-0.00359565 0.136417,-0.0833537 0.173681,-0.100351l-0.0124213 0.210836c0.050448,0.0519735 0.085097,0.0629783 0.132167,0.119419l0.0130751 0.0184141c-0.0512108,0.0125303 -0.165836,0.0204843 -0.198305,0.0564408 -0.02931,0.0325788 -0.045327,0.127373 -0.0829178,0.175751l-0.10155 -0.172591 -0.208003 -0.0147095c0.0240799,-0.0484868 0.11201,-0.12661 0.122906,-0.152216 0.0169976,-0.039879 -0.0287652,-0.157664 -0.0385715,-0.210182z"/>
  <path class="fil1" d="M6.54931 10.39l-0.0278935 0.230448c-0.0196126,0.235678 -0.0325788,0.452616 -0.0325788,0.692871 0,0.125303 -0.165618,0.386587 -0.231211,0.502846 -0.0888016,0.157446 -0.168124,0.318705 -0.255509,0.475279 -0.0871672,0.156247 -0.177821,0.326986 -0.25856,0.484977 -0.252676,0.494456 -0.486284,0.696466 -0.157664,1.00133 0.121271,0.112446 0.344093,0.141102 0.54011,0.19046 0.117894,0.0297458 0.513088,0.13816 0.607011,0.136635 0.0496853,-0.050666 0.0906539,-0.148402 0.124649,-0.214431 0.0658113,-0.128027 0.0445643,-0.132603 0.0805207,-0.264335 0.0336683,0.0822641 0.0385715,0.172264 0.0833537,0.26695l0.289831 0.00773609c0.047942,-0.023862 0.107869,-0.0723488 0.154613,-0.106344 0.552531,-0.40195 1.15573,-0.845086 1.68342,-1.26556 0.199504,-0.158971 0.399989,-0.31511 0.602652,-0.467434 0.310969,-0.233826 0.56942,-0.496526 0.845958,-0.7589 0.047942,-0.0455449 0.082373,-0.0847701 0.127482,-0.133584l0.389311 -0.419492c0.127046,-0.155158 0.639154,-0.769142 0.692544,-0.915692 -0.0454359,-0.215848 -0.276211,-0.931818 -0.360981,-1.05516 -0.0781236,-0.113644 -0.0407507,0.0981721 -0.205715,-0.264226 -0.050557,-0.111247 -0.147422,-0.348996 -0.205061,-0.431805 -0.0325788,0.0439105 -0.0633052,0.249516 -0.0765982,0.318705 -0.0101332,0.0533899 -0.0216829,0.108196 -0.0326877,0.16431l-0.026695 0.12977c-0.0303996,0.0733294 -0.0804118,0.0362834 -0.183596,0.0871672l-0.013184 0.208439c-0.082591,0 -0.117349,-0.119637 -0.186865,-0.247882 -0.0403148,-0.074528 -0.117676,-0.207022 -0.147095,-0.285364l-0.129116 -0.253439c-0.0356296,-0.0386805 -0.0652665,-0.111792 -0.090436,-0.164092 -0.0366102,-0.0761624 -0.0709323,-0.105908 -0.0720219,-0.197434l-0.00337773 -1.64485c-0.00272398,-0.693197 0.021247,-1.45428 -0.045109,-2.13712 -0.0645038,-0.662798 -0.141647,-1.25968 -0.294516,-1.88194 -0.117785,-0.479747 -0.226199,-0.783416 -0.45109,-1.19267 -0.0574214,-0.104601 -0.0095884,-0.402713 -0.0579662,-0.483996 -0.0528451,0.158971 0.0228814,0.359565 -0.0788864,0.527798 -0.214322,0.354226 -0.387894,0.980414 -0.480727,1.38629 -0.355533,1.55506 -0.277955,3.12179 -0.281659,4.70801 -0.000435836,0.204516 -0.00119855,0.408923 -0.00130751,0.61333 -0.000217918,0.219226 -0.0326877,0.22293 -0.158535,0.460134 -0.0723488,0.136417 -0.146659,0.274686 -0.214213,0.412301 -0.0361744,0.0737653 -0.0721309,0.133148 -0.108959,0.204298 -0.0529541,0.10253 -0.0710413,0.173681 -0.137179,0.178148 -0.0348669,-0.0575304 -0.0207022,-0.151235 -0.0225545,-0.224347l-0.177167 -0.0348669c-0.0281114,-0.116477 -0.0969736,-0.574214 -0.139468,-0.643294 -0.0140557,0.0108959 -0.00512108,0.000544795 -0.0192858,0.0199395 -0.0237531,0.0324698 -0.218136,0.467434 -0.236223,0.507313 -0.103293,0.227615 -0.109504,0.0263681 -0.181744,0.209964 -0.0392253,0.0992617 -0.0803028,0.186429 -0.118983,0.285255 -0.152761,0.389529 -0.262047,0.827217 -0.319032,1.27754z"/>
  <path class="fil2" d="M7.43667 13.9704l0.023971 0.0970825c0.0893464,-0.015908 0.126284,-0.108087 0.221405,-0.165182 0.0171066,0.0209201 0.0256054,0.0394432 0.0390073,0.05862 0.0431478,-0.0090436 0.0408596,-0.0155811 0.0674457,-0.0361744 0.0509928,0.111247 0.0981721,0.222276 0.150799,0.331344 0.0833537,0.172918 0.0848791,0.141211 0.277955,0.19155 0.128354,0.0335594 0.253221,0.0641769 0.385824,0.0974094 0.454359,0.113862 0.359565,0.00991527 0.457737,0.376671 0.0139468,0.0521914 0.0269129,0.087712 0.0438015,0.139141 0.00784505,0.0236441 0.0130751,0.0447822 0.0221187,0.0689711 0.0144916,0.0383536 0.013293,0.0370461 0.0342131,0.0649396l0.140339 0.00359565c0.0675546,-0.180436 0.120291,-0.364577 0.172155,-0.557434 0.24908,-0.0536079 0.509493,-0.128354 0.761515,-0.191659 0.192749,-0.0483778 0.199395,-0.0171066 0.279698,-0.189698 0.045109,-0.0970825 0.116477,-0.229577 0.147748,-0.326005 0.00315981,0.000871672 0.00697338,0.00326877 0.00882568,0.00403148 0.0018523,0.000871672 0.00653754,0.00305085 0.00882568,0.00403148l0.0457628 0.0178693c0.0197216,-0.0192858 0.0336683,-0.0375909 0.0521914,-0.0549154 0.0888016,0.0482689 0.130424,0.139032 0.216284,0.164637l0.0447822 -0.170521 0.378306 0c0.0539347,-0.0341042 0.0715861,-0.220097 0.0812835,-0.28678 0.023862,0.0281114 0.00871672,-0.00261502 0.0260412,0.0487047 0.0290921,0.0859687 -0.0305085,0.0358475 0.0706055,0.227506 0.0344311,0.0654844 0.0842253,0.177821 0.129008,0.222821 0.0882568,-0.000326877 0.507531,-0.117131 0.622483,-0.145896 0.246138,-0.0616708 0.682193,-0.125194 0.682519,-0.486066 0.000108959,-0.141211 -0.0517555,-0.196889 -0.10046,-0.298112 -0.0822641,-0.170739 -0.177167,-0.339843 -0.267386,-0.502301 -0.186647,-0.336248 -0.355751,-0.675219 -0.542834,-1.00994 -0.19994,-0.357822 -0.134891,-0.196344 -0.154613,-0.630328 -0.0101332,-0.224565 -0.026477,-0.490861 -0.0669009,-0.70758 -0.0313802,0.021356 -0.0898912,0.10362 -0.121271,0.140448 -0.0419492,0.0493584 -0.0733294,0.0854239 -0.118112,0.129552l-0.492822 0.524965c-0.100896,0.102748 -0.414589,0.386696 -0.53074,0.487265l-0.280243 0.228378c-0.74103,0.573669 -1.52771,1.22535 -2.30852,1.73648l-0.608754 0.392579z"/>
  <path class="fil3" d="M14.7633 4.27991l0.0495764 0.0674457 -0.0838985 0.0712592 -0.0650486 -0.0619977c-0.149819,0.0587289 -0.568984,0.451417 -0.710958,0.566587l-0.272833 0.249516c-0.0467434,0.0434747 -0.0815014,0.0892375 -0.127918,0.132712 -0.179673,0.167797 -0.348669,0.334177 -0.525945,0.505134 -0.0466345,0.0448911 -0.0803028,0.0888016 -0.127482,0.133148l-1.08294 0.978997c-0.161804,0.13184 -0.373185,0.335049 -0.551987,0.478657 -0.0512108,0.0410776 -0.0893464,0.0765982 -0.140884,0.120073 -0.215521,0.181962 -0.657459,0.54218 -0.883222,0.682846l0.129116 0.253439c0.137724,-0.0555691 0.909154,-0.640461 1.01539,-0.727084 0.19155,-0.156138 0.40718,-0.329165 0.587834,-0.494892l0.57465 -0.521805c0.0763803,-0.0845522 0.152979,-0.132494 0.221405,-0.209201l1.24475 -1.15627c0.0492495,-0.0423851 0.0647217,-0.0794311 0.122797,-0.105037 -0.0671188,0.107652 -0.215085,0.253439 -0.364577,0.503064 -0.482362,0.805207 -0.452616,0.915038 -0.789953,1.80654 -0.249625,0.659747 -0.480509,1.16553 -0.83212,1.75163 -0.0587289,0.0979542 -0.283076,0.481163 -0.341696,0.529105 -0.0533899,0.14655 -0.565497,0.760534 -0.692544,0.915692l-0.389311 0.419492c-0.045109,0.0488137 -0.0795401,0.0880389 -0.127482,0.133584 -0.276538,0.262373 -0.534989,0.525074 -0.845958,0.7589 -0.202664,0.152325 -0.403148,0.308463 -0.602652,0.467434 -0.527689,0.420473 -1.13089,0.863609 -1.68342,1.26556 -0.0467434,0.0339952 -0.106671,0.082482 -0.154613,0.106344 -0.0527362,0.0511018 -0.177712,0.129116 -0.250497,0.180109l-0.51919 0.35488c-0.0853149,0.0570945 -0.182506,0.128136 -0.261175,0.174226 0.258778,-0.0935958 0.962435,-0.550352 1.15616,-0.63959l0.608754 -0.392579c0.780801,-0.511127 1.56748,-1.16281 2.30852,-1.73648l0.280243 -0.228378c0.11615,-0.100569 0.429843,-0.384516 0.53074,-0.487265l0.492822 -0.524965c0.0447822,-0.0441284 0.0761624,-0.0801939 0.118112,-0.129552 0.0313802,-0.0368282 0.0898912,-0.119092 0.121271,-0.140448l0.483124 -0.638609c0.42396,-0.571926 0.938028,-1.52205 1.2053,-2.20043 0.348669,-0.884856 0.543488,-1.54003 1.09667,-2.29577 0.140448,-0.191768 0.476478,-0.493258 0.539892,-0.593282l-0.281768 0.0840074c-0.0356296,-0.0402059 -0.0697338,-0.0712592 -0.0929421,-0.120836l0.299855 -0.504154c-0.138269,0.0380267 -0.267386,0.16333 -0.383972,0.218245z"/>
  <path class="fil0" d="M10.3689 8.45773c0.0294189,0.0783416 0.10678,0.210836 0.147095,0.285364 0.0695159,0.128245 0.104274,0.247882 0.186865,0.247882l0.013184 -0.208439c0.103184,-0.0508839 0.153196,-0.0138378 0.183596,-0.0871672l0.026695 -0.12977c0.0110049,-0.0561139 0.0225545,-0.11092 0.0326877,-0.16431 0.013293,-0.069189 0.0440195,-0.274795 0.0765982,-0.318705 0.0576393,0.0828089 0.154504,0.320558 0.205061,0.431805 0.164964,0.362398 0.127591,0.150581 0.205715,0.264226 0.0847701,0.123342 0.315545,0.839312 0.360981,1.05516 0.05862,-0.047942 0.282967,-0.431151 0.341696,-0.529105 0.351611,-0.586091 0.582495,-1.09188 0.83212,-1.75163 0.337337,-0.891503 0.307591,-1.00133 0.789953,-1.80654 0.149492,-0.249625 0.297458,-0.395412 0.364577,-0.503064 -0.0580752,0.0256054 -0.0735474,0.0626515 -0.122797,0.105037l-1.24475 1.15627c-0.0684263,0.0767072 -0.145024,0.124649 -0.221405,0.209201l-0.57465 0.521805c-0.180654,0.165727 -0.396284,0.338754 -0.587834,0.494892 -0.106235,0.0866224 -0.877665,0.671515 -1.01539,0.727084z"/>
  <path class="fil3" d="M2.39427 12.159l0.0152543 0.110049c0.173463,-0.0378088 0.390182,-0.119746 0.559941,-0.178802 0.995123,-0.345509 2.12121,-0.791696 3.06861,-1.23734 0.155594,-0.0732205 0.332761,-0.172918 0.483342,-0.23241l0.0278935 -0.230448c-0.06908,0.021247 -0.181962,0.0829178 -0.253003,0.120618 -0.387349,0.205715 -1.38531,0.632398 -1.78203,0.801721 -0.698754,0.29833 -1.40307,0.56419 -2.12002,0.846612z"/>
  <path class="fil2" d="M4.9839 16.3994c0.152652,-0.0709323 0.371223,-0.425158 0.471139,-0.62695l0.291465 0.158209 -0.383536 0.682955c-0.0715861,-0.0301817 -0.339734,-0.171066 -0.379069,-0.214213zm0.935522 -0.503827l-0.528233 -0.286453c-0.0838985,0.151126 -0.162567,0.294298 -0.257143,0.433221 -0.113753,0.166816 -0.201792,0.30465 -0.38103,0.245158l-0.152216 0.283838c0.0334504,0.0330146 0.0577483,0.0450001 0.0982811,0.0528451l0.103947 -0.181962 0.628476 0.342131 -0.100896 0.196998 0.100569 0.0472882 0.153959 -0.29103 -0.098499 -0.0480509 0.432785 -0.793985z"/>
  <path class="fil0" d="M16.8715 9.49415c-0.47212,0.108305 -0.289504,0.762278 0.307809,0.625425 0.176732,-0.0404238 0.336466,-0.232954 0.224674,-0.44804 -0.0740922,-0.142518 -0.311078,-0.228269 -0.532483,-0.177385z"/>
  <path class="fil0" d="M2.26951 12.7295c-0.179565,0.0414044 -0.382555,0.18 -0.408052,0.357713 -0.0324698,0.225763 0.16638,0.389093 0.395848,0.338972 0.174008,-0.0380267 0.376345,-0.185121 0.404238,-0.3527 0.0369371,-0.222494 -0.162022,-0.397047 -0.392035,-0.343984z"/>
  <path class="fil0" d="M14.1737 2.90975c0.0604723,-0.232083 -0.127373,-0.437035 -0.353463,-0.3904 -0.163765,0.0337773 -0.323499,0.230557 -0.364032,0.393342 -0.0562229,0.22609 0.123995,0.425812 0.347035,0.386587 0.163874,-0.0288741 0.327531,-0.224347 0.370461,-0.389529z"/>
  <path class="fil2" d="M17.3388 8.53988l-0.809348 0.486938 0.0162349 0.189698 1.00776 -0.0590558 -0.00555691 -0.133257 -0.830268 0.0435836c0.03454,-0.0327967 0.336901,-0.209964 0.400969,-0.248209 0.462967,-0.276211 0.408596,-0.202337 0.390291,-0.430388l-1.01125 0.0609081 0.00446732 0.132276 0.836697 -0.042494z"/>
  <path class="fil2" d="M12.3896 2.62134l0.108305 0.0686442c0.0499032,-0.0578573 0.32132,-0.58304 0.413391,-0.728064l-0.0138378 0.947726 0.159407 0.08793c0.0236441,-0.0368282 0.46896,-0.829832 0.487265,-0.883767 -0.0308354,-0.0314892 -0.0708234,-0.0514287 -0.116041,-0.0640679l-0.398681 0.727084 0.00969736 -0.954917 -0.158644 -0.0800849 -0.490861 0.879517z"/>
  <path class="fil2" d="M6.21481 16.0242l-0.120182 -0.0404238 -0.368717 0.945656c0.163983,0.0465255 0.131405,0.104056 0.256708,-0.0122034 0.0312712,-0.0289831 0.0659202,-0.0569856 0.105145,-0.090545 0.0955571,-0.0819372 0.46787,-0.404347 0.530957,-0.440521l-0.301272 0.773282 0.115388 0.0420582c0.042603,-0.056005 0.323608,-0.800849 0.374165,-0.930292 -0.0254964,-0.0278935 -0.0843343,-0.0489226 -0.129552,-0.0634142 -0.0525183,-0.0168887 -0.0782326,0.0165618 -0.114734,0.0499032l-0.421889 0.36109c-0.0756176,0.0603633 -0.135545,0.128899 -0.22402,0.179238l0.298003 -0.773827z"/>
  <path class="fil2" d="M2.88589 14.6532c0.0477241,-0.0578573 0.082482,-0.0706055 0.128681,-0.117349 0.0497943,-0.0503391 0.0843343,-0.0906539 0.143172,-0.120182 0.0591648,0.0581841 0.123342,0.126066 0.174008,0.194056 0.139468,0.186865 -0.105145,0.400316 -0.271635,0.245267 -0.0281114,-0.0260412 -0.160606,-0.167797 -0.174226,-0.201792zm0.355206 -0.32241c0.0366102,-0.0303996 0.0684263,-0.0682084 0.107107,-0.100242 0.0468524,-0.0388984 0.0623246,-0.053172 0.105799,-0.0992617 0.0325788,0.0157991 0.144044,0.140666 0.169213,0.174008 0.136962,0.181199 -0.0650486,0.367955 -0.234153,0.194928 -0.0331236,-0.0338863 -0.122034,-0.128463 -0.147966,-0.169431zm0.219008 0.323064c0.114843,0.0539347 0.189153,0.0397701 0.271744,-0.039879 0.0703875,-0.0676636 0.0977363,-0.158209 0.0495764,-0.271635 -0.0356296,-0.0840074 -0.266732,-0.337664 -0.323608,-0.385279 -0.0774699,0.0463076 -0.129552,0.114298 -0.199177,0.17063 -0.0376998,0.0305085 -0.0574214,0.0563318 -0.0940317,0.0885837l-0.459044 0.412628c0.0581841,0.0844433 0.302797,0.353354 0.404456,0.398245 0.162458,0.0716951 0.45632,-0.0501212 0.350085,-0.373294z"/>
  <path class="fil2" d="M2.26951 12.7295c0.230013,-0.0530631 0.428972,0.121489 0.392035,0.343984 -0.0278935,0.167579 -0.23023,0.314674 -0.404238,0.3527 -0.229468,0.0501212 -0.428318,-0.113208 -0.395848,-0.338972 0.0254964,-0.177712 0.228487,-0.316308 0.408052,-0.357713zm-0.530195 0.423197c0.0288741,0.261829 0.277301,0.484868 0.583367,0.405219 0.755631,-0.19678 0.480836,-1.11563 -0.123451,-0.959493 -0.233063,0.0603633 -0.492059,0.263681 -0.459916,0.554275z"/>
  <path class="fil2" d="M14.1737 2.90975c-0.0429299,0.165182 -0.206586,0.360654 -0.370461,0.389529 -0.223039,0.0392253 -0.403257,-0.160497 -0.347035,-0.386587 0.0405328,-0.162785 0.200267,-0.359565 0.364032,-0.393342 0.22609,-0.0466345 0.413935,0.158317 0.353463,0.3904zm-0.403257 -0.51189c-0.222494,0.0508839 -0.45425,0.293318 -0.45948,0.56419 -0.00523003,0.269565 0.261393,0.516139 0.549263,0.459153 0.220315,-0.0435836 0.45327,-0.305412 0.460243,-0.563427 0.0071913,-0.271744 -0.26902,-0.524202 -0.550025,-0.459916z"/>
  <path class="fil2" d="M16.8715 9.49415c0.221405,-0.0508839 0.458391,0.0348669 0.532483,0.177385 0.111792,0.215085 -0.047942,0.407616 -0.224674,0.44804 -0.597314,0.136853 -0.779929,-0.51712 -0.307809,-0.625425zm0.669989 0.396393c0.106998,-0.65844 -0.957423,-0.760207 -1.04187,-0.164201 -0.0933779,0.658548 0.945874,0.754868 1.04187,0.164201z"/>
  <path class="fil2" d="M3.93102 9.35958c-0.0171066,-0.0710413 -0.116041,-0.259976 -0.102313,-0.311187 0.0104601,-0.0385715 0.136417,-0.196344 0.163003,-0.258887l-0.312059 0.0166707c-0.0769251,-0.0682084 -0.136308,-0.191768 -0.2104,-0.247991 -0.0876031,0.354989 -0.0164528,0.298766 -0.378633,0.416659l0.0294189 0.0270218c0.270872,0.211925 0.234371,0.00708234 0.248862,0.471466 0.0716951,-0.0331236 0.191005,-0.161041 0.232737,-0.183378 0.0534989,-0.0286562 0.251913,0.0545885 0.329383,0.0696248z"/>
  <path class="fil2" d="M15.5483 12.9815c0.000108959,0.000108959 0.19046,0.23023 0.254419,0.2858 -0.0181962,0.0973004 -0.153959,0.247773 -0.189044,0.355098 0.122143,-0.0353027 0.256816,-0.128354 0.376236,-0.149928 0.0253875,0.0446732 0.140339,0.172918 0.190134,0.228487 0.0215739,0.0240799 0.0427119,0.0396611 0.0643948,0.0602544l-0.0367192 -0.396938 0.360654 -0.167143 -0.387023 -0.0831358c-0.0100242,-0.098499 -0.0103511,-0.326005 -0.0497943,-0.391272l-0.19678 0.3381 -0.386478 -0.0793222z"/>
  <path class="fil2" d="M8.15079 17.0976c0.0521914,0.0419492 0.0978452,0.0901091 0.157119,0.123451l-0.148838 0.377652 0.335485 -0.200376c0.0780147,0.0383536 0.218899,0.199395 0.311187,0.250606l-0.0894554 -0.389529 0.251042 -0.149928c0.0100242,-0.00599275 0.0676636,-0.0402059 0.0706055,-0.0512108 0.00119855,-0.00468524 0.00501212,-0.00501212 0.00730026,-0.00838985l-0.374492 -0.0362834c-0.0435836,-0.0202664 -0.063741,-0.295606 -0.116259,-0.376236l-0.145024 0.359456 -0.403802 -0.0271308 0.145133 0.127918z"/>
  <path class="fil2" d="M16.0308 11.9883c0.0153632,0.0253875 0.00217918,0.00642858 0.0202664,0.0258233l0.0566587 0.0494674c0.026477,0.0228814 0.0430388,0.0335594 0.0715861,0.0589468 0.0383536,0.0338863 0.103838,0.0925062 0.152216,0.116368l-0.146332 0.376454c0.105799,-0.0362834 0.235569,-0.163656 0.346054,-0.203536 0.0468524,0.042603 0.0927242,0.0818282 0.146768,0.125412 0.0493584,0.0396611 0.0986079,0.0897823 0.155702,0.120618l-0.0911987 -0.389311 0.321647 -0.216284 -0.388112 -0.0237531 -0.104601 -0.375909c-0.0725667,0.100351 -0.0781236,0.267168 -0.156683,0.357604l-0.383972 -0.0219008z"/>
  <path class="fil2" d="M11.1522 16.9584c0.023971,-0.0297458 0.0358475,-0.0383536 0.0626515,-0.0673367 0.0228814,-0.0247337 0.110049,-0.124431 0.123886,-0.153414l-0.391599 0.0822641c-0.0204843,-0.0518645 -0.169867,-0.302252 -0.202991,-0.336139 -0.0495764,0.458173 0.0662471,0.3904 -0.425703,0.479093 0.0780147,0.0682084 0.258996,0.105037 0.360981,0.169867l-0.0317071 0.387567c0.061126,-0.0549154 0.0791043,-0.0891285 0.136744,-0.146441 0.0471793,-0.0468524 0.069298,-0.100351 0.137179,-0.140993l0.358584 0.14655 -0.194274 -0.338318 0.0662471 -0.0826999z"/>
  <path class="fil2" d="M9.90808 17.2386c0.0517555,-0.0416224 0.0966467,-0.0812835 0.15385,-0.130424 0.0211381,-0.0180872 0.136308,-0.119201 0.147422,-0.129552l-0.397918 0.0247337 -0.152979 -0.363487c-0.0370461,0.107325 -0.0512108,0.291248 -0.106562,0.382228l-0.382446 0.0278935c0.0350848,0.0428209 0.272616,0.188608 0.329056,0.208003l-0.0935958 0.389529c0.08793,-0.0493584 0.202337,-0.172482 0.303124,-0.241562 0.0964288,0.0295279 0.233281,0.153305 0.344964,0.198305l-0.144916 -0.365667z"/>
  <path class="fil2" d="M15.5488 13.7176c-0.0456538,0.045109 -0.0853149,0.0992617 -0.127046,0.151344 -0.0322519,0.0403148 -0.0967556,0.130206 -0.12977,0.153959l-0.364032 -0.131078c0.0410776,0.106235 0.163003,0.230557 0.20517,0.3308 -0.0236441,0.0458718 -0.0870583,0.115606 -0.123124,0.160933 -0.0431478,0.0540437 -0.0796491,0.0988259 -0.116259,0.149274 0.115061,-0.00697338 0.275775,-0.0898912 0.386914,-0.0906539l0.21879 0.32241 0.0197216 -0.397047 0.384625 -0.113644 -0.37057 -0.133911 0.0155811 -0.402386z"/>
  <path class="fil2" d="M15.2797 4.09577c0.0751817,0.0706055 0.152543,0.190569 0.218463,0.27534 -0.0569856,0.0409686 -0.395848,0.150799 -0.494238,0.167361l0.275775 -0.442701zm-0.132385 -0.0341042l-0.299855 0.504154c0.0232083,0.0495764 0.0573125,0.0806297 0.0929421,0.120836l0.281768 -0.0840074c0.115932,-0.0350848 0.687967,-0.203862 0.747241,-0.244504 -0.023862,-0.0446732 -0.0496853,-0.0602544 -0.0734384,-0.105799l-0.279371 0.0883658c-0.0220097,-0.047833 -0.042603,-0.0603633 -0.0628694,-0.101114 -0.0329056,-0.0277846 -0.192204,-0.223366 -0.210727,-0.26172l0.0277846 -0.0360654 0.111901 -0.187627c-0.0219008,-0.0472882 -0.0468524,-0.0794311 -0.0884747,-0.112446l-0.246901 0.419928z"/>
  <path class="fil2" d="M3.86042 14.9822c0.0334504,-0.0756176 0.0869493,-0.106126 0.141756,-0.17586 0.0277846,-0.0353027 0.0193947,-0.0327967 0.055896,-0.0527362 0.0862956,0.0568766 0.302252,0.281441 0.380485,0.32241l0.0642858 -0.0835716c-0.0804118,-0.0753997 -0.151017,-0.142518 -0.23448,-0.2104 -0.0580752,-0.0472882 -0.190569,-0.177276 -0.236332,-0.206804 -0.0470703,0.0315981 -0.124976,0.136853 -0.176949,0.188281l-0.496091 0.565062c0.0553512,0.0554602 0.447386,0.409904 0.490425,0.430606l0.0682084 -0.0939227c-0.0461986,-0.0317071 -0.327422,-0.275448 -0.376236,-0.333524 0.0366102,-0.0466345 0.197761,-0.233608 0.242107,-0.269347 0.0329056,0.0216829 0.053281,0.0507749 0.0872762,0.0780147l0.180981 0.158644c0.0379177,0.0383536 0.0495764,0.0568766 0.100351,0.0740922l0.0591648 -0.0805207 -0.173354 -0.162349c-0.0459807,-0.0392253 -0.134673,-0.122579 -0.177494,-0.148075z"/>
  <path class="fil2" d="M16.7122 5.86636l0.183705 0.474517c-0.0404238,0.0365013 -0.273051,0.123015 -0.337555,0.140448l-0.178584 -0.440848 -0.105799 0.037264 0.173354 0.44488 -0.28155 0.117349 -0.180981 -0.467107 -0.105581 0.0384625c0.0262591,0.105145 0.187192,0.501865 0.237313,0.595788l0.937811 -0.372749 -0.237204 -0.604505 -0.104928 0.0365013z"/>
  <polygon class="fil2" points="7.06687,16.4559 7.55555,16.5837 7.57734,16.4719 6.96237,16.3114 6.70327,17.2906 7.33403,17.4561 7.35713,17.3453 6.86289,17.2124 6.95823,16.8578 7.42796,16.9803 7.45291,16.8699 6.99005,16.7398 "/>
  <path class="fil2" d="M16.5282 7.67202c-0.0223366,0 -0.0724578,0.00359565 -0.0913077,0.00926152 -0.0421672,0.0126392 -0.0335594,0.0023971 -0.0433657,0.0448911 -0.00828089,0.0360654 -0.00653754,0.140557 -0.00381357,0.180327 0.0339952,0.505025 0.461551,0.450764 0.549154,0.23764 0.0726757,-0.176732 -0.0431478,-0.546103 0.243959,-0.497071 0.0843343,0.0143826 0.136308,0.11833 0.151453,0.214649 0.0207022,0.131623 -0.00773609,0.209746 -0.0326877,0.326114 0.03454,-0.00381357 0.074419,-0.00599275 0.106344,-0.0193947 0.106671,-0.0445643 0.0390073,-0.459589 -0.0652665,-0.575522 -0.133366,-0.148184 -0.377652,-0.108741 -0.461006,0.0507749 -0.0940317,0.179782 0.0317071,0.510473 -0.192858,0.515703 -0.236005,0.00544795 -0.185666,-0.352156 -0.160606,-0.487374z"/>
  <path class="fil0" d="M1.51246 12.479l0.772847 -0.275884c-0.0573125,-0.250933 -0.254855,-0.360219 -0.536187,-0.25017 -0.218572,0.0853149 -0.354989,0.249298 -0.236659,0.526054z"/>
  <path class="fil2" d="M4.75715 16.0176c0.0713682,-0.135763 0.0103511,-0.193293 -0.0299637,-0.287761 0.227398,0.0626515 0.381575,-0.138269 0.269892,-0.345509 -0.0646127,-0.119746 -0.252022,-0.260412 -0.431914,-0.298548 -0.023971,0.0369371 -0.0420582,0.0564408 -0.0658113,0.102422 0.0395521,0.0233172 0.413935,0.119637 0.404565,0.312059 -0.00501212,0.103293 -0.09316,0.171066 -0.207785,0.13293 -0.0864045,-0.0288741 -0.152543,-0.113317 -0.222168,-0.133257l-0.0542616 0.0796491c0.00196126,0.00283294 0.00490316,0.00621067 0.00631962,0.00784505l0.050557 0.0435836c0.0205933,0.0140557 0.0404238,0.0261502 0.0615619,0.0427119 0.202446,0.157664 0.115823,0.316744 0.0152543,0.361853 -0.10885,0.0489226 -0.225654,-0.0290921 -0.287652,-0.0764893 -0.0865135,-0.0660292 -0.11201,-0.107869 -0.165073,-0.22402 -0.0384625,0.0298548 -0.0552422,0.0588379 -0.0831358,0.105581 0.0730026,0.208657 0.558742,0.521587 0.739614,0.176949z"/>
  <path class="fil2" d="M2.18016 13.8449c0.0156901,0.198197 0.191659,0.403584 0.329601,0.46471 0.194928,0.0865135 0.447386,-0.0488137 0.37678,-0.334831 0.354771,0.200267 0.599493,-0.272398 0.0624335,-0.659747 -0.0276756,0.0113317 -0.0810655,0.0468524 -0.101768,0.0725667 0.0286562,0.0359565 0.0714771,0.0570945 0.110267,0.0826999 0.0530631,0.0349759 0.0542616,0.045327 0.0895643,0.0933779 0.232628,0.315872 -0.0472882,0.39465 -0.152979,0.309662 -0.0649396,-0.0523003 -0.107216,-0.149928 -0.166925,-0.198088 -0.0236441,0.0114407 -0.0236441,0.00947944 -0.0481599,0.02931l-0.0271308 0.0275666c-0.000980631,-0.00228814 -0.00435836,0.00501212 -0.00621067,0.00773609 0.0406417,0.071804 0.127591,0.152107 0.143717,0.251804 0.0180872,0.112664 -0.0711503,0.208983 -0.16856,0.21563 -0.139359,0.0095884 -0.270218,-0.180981 -0.301163,-0.281768 -0.00773609,-0.0250606 -0.0111138,-0.0477241 -0.0162349,-0.0764893l-0.0157991 -0.0619977c-0.000544795,-0.00501212 -0.0023971,-0.00653754 -0.00544795,-0.0113317l-0.101986 0.069189z"/>
  <path class="fil2" d="M13.9458 15.0317c0.0278935,-0.0406417 0.110376,-0.10046 0.152434,-0.137942 0.0562229,-0.0497943 0.102095,-0.0826999 0.146986,-0.136417l-0.0579662 -0.0807387c-0.0593827,0.0219008 -0.346926,0.288959 -0.415134,0.350957l0.330255 0.377216c0.0643948,-0.10678 0.0943585,-0.16224 0.196017,-0.219226 0.281659,-0.157991 0.558633,0.307156 0.0721309,0.489335 -0.0494674,0.018523 -0.0466345,0.013184 -0.0697338,0.037373 0.0404238,0.034649 0.0521914,0.0445643 0.0791043,0.0873852 0.108741,-0.0246247 0.251586,-0.145024 0.301599,-0.205061 0.328838,-0.39465 -0.293209,-0.834299 -0.575086,-0.382228 -0.0321429,-0.0222276 -0.143063,-0.143826 -0.160606,-0.180654z"/>
  <path class="fil0" d="M4.9839 16.3994c0.0393342,0.0431478 0.307482,0.184032 0.379069,0.214213l0.383536 -0.682955 -0.291465 -0.158209c-0.0999154,0.201792 -0.318487,0.556018 -0.471139,0.62695z"/>
  <path class="fil2" d="M1.54842 12.528l-0.0359565 -0.0490316c-0.11833,-0.276756 0.0180872,-0.440739 0.236659,-0.526054 0.281332,-0.110049 0.478875,-0.000762713 0.536187,0.25017l0.0101332 0.107325 -0.0260412 0.156683c0.140448,-0.0368282 0.144153,-0.0442374 0.140121,-0.198088l-0.0152543 -0.110049c-0.06908,-0.183596 -0.138487,-0.317398 -0.335158,-0.37373 -0.314456,-0.0900002 -0.839203,0.182724 -0.686115,0.646999 0.0456538,0.138596 0.182397,0.396502 0.346272,0.250715 -0.0786684,-0.0545885 -0.131296,-0.079758 -0.170848,-0.15494z"/>
  <path class="fil2" d="M17.2607 10.4272c0.0268039,0.0918525 0.066574,0.121925 0.0652665,0.246356 -0.00566587,0.560267 -0.806406,0.4208 -0.828525,0.0376998 -0.0123124,-0.211925 0.0977363,-0.299528 0.186756,-0.399553l-0.138923 -0.0189589c-0.0631962,0.0750728 -0.101986,0.113426 -0.13707,0.230775 -0.195908,0.654626 0.672713,0.835607 0.922774,0.491732 0.130751,-0.18 0.123233,-0.342567 0.0648306,-0.564517l-0.135109 -0.0235352z"/>
  <path class="fil2" d="M11.7749 16.3566c0.310642,-0.361308 0.547192,-0.194383 0.499032,0.0528451 -0.0220097,0.112882 -0.0902181,0.260194 -0.132276,0.364577 -0.118547,0.294298 -0.0991527,0.195473 -0.0591648,0.357713l0.59764 -0.250933 -0.0388984 -0.106998 -0.438996 0.177603c0.0523003,-0.211163 0.292446,-0.550679 0.175969,-0.779493 -0.151235,-0.29724 -0.519626,-0.0869493 -0.657132,0.0640679l0.0538258 0.120618z"/>
  <path class="fil2" d="M12.5134 16.0377c0.0819372,-0.0918525 0.119528,-0.186647 0.256054,-0.22816 0.152979,-0.0466345 0.24908,0.069298 0.243088,0.213887 -0.00501212,0.121489 -0.103729,0.432894 -0.144589,0.575958 -0.0268039,0.0937048 -0.0137288,0.108414 0.0392253,0.176514l0.559396 -0.308136 -0.0528451 -0.0923973c-0.0642858,0.0114407 -0.33494,0.17793 -0.413718,0.216284 0.0110049,-0.228923 0.252022,-0.588488 0.0808476,-0.809239 -0.0785595,-0.101441 -0.203536,-0.145569 -0.364577,-0.0780147 -0.10155,0.042603 -0.23339,0.149492 -0.268693,0.227615 0.00926152,0.0217918 0.0165618,0.0384625 0.0305085,0.0613439l0.0353027 0.0443463z"/>
  <path class="fil2" d="M14.6639 4.35662l0.0650486 0.0619977 0.0838985 -0.0712592 -0.0495764 -0.0674457c-0.0614529,-0.0565497 -0.158426,-0.130751 -0.190787,-0.195799l0.471466 -0.470485c0.0516466,-0.0496853 0.115279,-0.102748 0.158644,-0.155811 -0.0209201,-0.0480509 -0.0455449,-0.0533899 -0.0740922,-0.0964288 -0.0891285,0.0306175 -0.250279,0.231865 -0.329492,0.307156 -0.0996975,0.0949033 -0.225545,0.231865 -0.328403,0.310533l-0.245594 -0.246574c-0.0422761,0.0169976 -0.063741,0.0380267 -0.0841164,0.0775788 0.0537168,0.0896733 0.409577,0.393887 0.523003,0.546539z"/>
  <polygon class="fil2" points="16.4779,7.63465 16.3797,7.28359 17.242,7.03189 17.2046,6.90463 16.3398,7.14771 16.2443,6.80406 16.1316,6.83936 16.3641,7.66102 "/>
  <path class="fil2" d="M13.3962 15.447c0.045218,0.0233172 0.0232083,0.00730026 0.0706055,0.0796491l0.161259 0.229904c0.0361744,0.0501212 0.197652,0.276865 0.216829,0.318923 -0.0495764,0.0520824 -0.12356,0.0817193 -0.170521,0.130533 0.0183051,0.0412955 0.0329056,0.0550243 0.0524093,0.0911987 0.0589468,-0.0226635 0.185012,-0.119201 0.244068,-0.160388 0.0623246,-0.0433657 0.178584,-0.134891 0.239383,-0.163003 -0.0219008,-0.0491405 -0.0301817,-0.0634142 -0.0658113,-0.0955571 -0.0682084,0.0333415 -0.115715,0.08793 -0.18523,0.117349 -0.0369371,-0.053281 -0.482907,-0.688512 -0.502301,-0.73057 -0.0882568,0.0359565 -0.224674,0.176405 -0.288959,0.247228 0.0162349,0.0421672 0.0459807,0.0840074 0.0750728,0.103293l0.153196 -0.16856z"/>
  <path class="fil2" d="M15.9103 4.46514c0.0648306,0.13609 0.192204,0.275231 0.259976,0.414916 -0.0467434,0.047833 -0.115497,0.0811745 -0.179456,0.123777 -0.0627604,0.0418403 -0.119419,0.0759445 -0.190134,0.123124 -0.0648306,0.0431478 -0.345073,0.210073 -0.374165,0.248862l0.0622156 0.10569c0.0598185,-0.0184141 0.523439,-0.327967 0.640243,-0.404565l0.183705 -0.116695c0.0023971,-0.0018523 0.00544795,-0.00435836 0.00762713,-0.00621067l0.0220097 -0.0217918c-0.0397701,-0.0809566 -0.113426,-0.184686 -0.163874,-0.259431 -0.0381357,-0.0563318 -0.142954,-0.209528 -0.165182,-0.264117l-0.102966 0.0564408z"/>
  <path class="fil2" d="M16.3265 5.11083l0.220315 0.433439c-0.0581841,0.0616708 -0.660837,0.339298 -0.792241,0.422216l0.0573125 0.114625 0.900329 -0.459698 -0.283729 -0.558742 -0.101986 0.0481599z"/>
  <path class="fil2" d="M2.27452 9.57826c-0.0143826,-0.0508839 -0.071804,-0.156792 -0.0677725,-0.194492 0.00370461,-0.0344311 0.0746369,-0.123451 0.0953392,-0.177712l-0.218899 0.0117676c-0.0311623,-0.0626515 -0.074419,-0.0928331 -0.109831,-0.151344l-0.0254964 0.0454359c-0.0477241,0.140448 0.0412955,0.143063 -0.22609,0.230557 0.0480509,0.0511018 0.129552,0.0733294 0.176514,0.121489l0.0137288 0.198197c0.0477241,-0.018632 0.114625,-0.0991527 0.163221,-0.131296l0.199286 0.0473972z"/>
  <path class="fil2" d="M7.05041 1.8036c0.00980631,0.0525183 0.0555691,0.170303 0.0385715,0.210182 -0.0108959,0.0256054 -0.0988259,0.103729 -0.122906,0.152216l0.208003 0.0147095 0.10155 0.172591c0.0375909,-0.0483778 0.0536079,-0.143172 0.0829178,-0.175751 0.0324698,-0.0359565 0.147095,-0.0439105 0.198305,-0.0564408l-0.0130751 -0.0184141c-0.0470703,-0.0564408 -0.0817193,-0.0674457 -0.132167,-0.119419l0.0124213 -0.210836c-0.037264,0.0169976 -0.153087,0.0967556 -0.173681,0.100351 -0.0440195,0.00784505 -0.145024,-0.0588379 -0.19994,-0.069189z"/>
  <path class="fil0" d="M2.88589 14.6532c0.0136199,0.0339952 0.146114,0.175751 0.174226,0.201792 0.166489,0.155049 0.411102,-0.0584021 0.271635,-0.245267 -0.050666,-0.0679904 -0.114843,-0.135872 -0.174008,-0.194056 -0.0588379,0.0295279 -0.0933779,0.0698428 -0.143172,0.120182 -0.0461986,0.0467434 -0.0809566,0.0594916 -0.128681,0.117349z"/>
  <path class="fil2" d="M13.9883 3.69262c0.0470703,0.0414044 0.042603,0.0596006 0.108196,0.0822641 0.0456538,-0.0791043 0.258124,-0.297567 0.32448,-0.37994 0.0540437,-0.0670098 0.108196,-0.119201 0.166163,-0.185775 0.0411865,-0.0472882 0.130206,-0.142518 0.16017,-0.195037 -0.0229904,-0.0236441 -0.06385,-0.0655933 -0.0939227,-0.0817193 -0.0446732,0.0271308 -0.132821,0.146768 -0.169976,0.185993l-0.331562 0.372531c-0.0343221,0.0410776 -0.0414044,0.0520824 -0.0847701,0.0979542 -0.0248427,0.0261502 -0.0615619,0.0702786 -0.0787774,0.103729z"/>
  <path class="fil0" d="M3.2411 14.3308c0.0259323,0.0409686 0.114843,0.135545 0.147966,0.169431 0.169104,0.173027 0.371115,-0.0137288 0.234153,-0.194928 -0.0251695,-0.0333415 -0.136635,-0.158209 -0.169213,-0.174008 -0.0434747,0.0460897 -0.0589468,0.0603633 -0.105799,0.0992617 -0.0386805,0.032034 -0.0704965,0.0698428 -0.107107,0.100242z"/>
  <path class="fil3" d="M15.3707 3.94181l-0.0277846 0.0360654c0.018523,0.0383536 0.177821,0.233935 0.210727,0.26172 0.0801939,-0.115823 0.173681,-0.229686 0.249843,-0.362398 0.0244068,-0.042494 0.045327,-0.0967556 0.06908,-0.125521 -0.0767072,0.00446732 -0.421998,0.151126 -0.501865,0.190134z"/>
  <path class="fil3" d="M15.0039 4.53847c0.09839,-0.0165618 0.437253,-0.126392 0.494238,-0.167361 -0.0659202,-0.0847701 -0.143281,-0.204734 -0.218463,-0.27534l-0.275775 0.442701z"/>
  <path class="fil2" d="M5.23592 2.80602l0.0370461 0.157555c-0.0483778,0.045327 -0.0659202,0.063741 -0.10046,0.112337l0.160061 0.0173245 0.0764893 0.131405c0.106889,-0.252349 0.0496853,-0.0914166 0.208983,-0.184468 -0.0333415,-0.0488137 -0.0764893,-0.0528451 -0.0987169,-0.0913077 -0.0240799,-0.0415134 -0.00315981,-0.112773 -0.00337773,-0.16638 -0.246683,0.128027 -0.0917435,0.0631962 -0.280025,0.0235352z"/>
  <path class="fil2" d="M3.03756 6.6538c0.0303996,0.0390073 0.0900002,0.0675546 0.129008,0.0941406l0.00610171 0.154504c0.0376998,-0.0193947 0.087821,-0.071804 0.112119,-0.0828089 0.0404238,-0.0180872 0.102095,0.0148184 0.161913,0.0256054 -0.0494674,-0.224674 -0.0773609,-0.0748549 0.0330146,-0.277628 -0.244613,0.00860776 -0.116041,0.0157991 -0.251695,-0.105472 -0.0018523,-0.00163439 -0.00533899,-0.0047942 -0.00838985,-0.00675546 -0.0382446,0.166054 -0.0151453,0.152434 -0.182071,0.198414z"/>
  <path class="fil2" d="M1.85764 6.65979l-0.148075 0.0480509 0.1277 0.0908718 0.00599275 0.155485c0.0388984,-0.0200485 0.0975183,-0.0783416 0.119855,-0.0846612 0.0454359,-0.0128572 0.101986,0.0274577 0.157991,0.0288741 -0.0764893,-0.25017 -0.0450001,-0.0838985 0.0273487,-0.277301l-0.155702 0.0071913c-0.0259323,-0.0409686 -0.0579662,-0.0792132 -0.0831358,-0.120073 -0.0344311,0.0378088 -0.0438015,0.102857 -0.0519735,0.151562z"/>
  <path class="fil2" d="M3.74067 4.28863l0.0359565 0.163656c-0.0441284,0.0330146 -0.0780147,0.0624335 -0.0978452,0.111138l0.144589 0.0095884c0.00250606,0.00446732 0.00621067,0.00468524 0.0071913,0.00937048l0.0821551 0.111356c0.00196126,0.00196126 0.00566587,0.00523003 0.00860776,0.00762713 0.0545885,-0.150037 0.0283294,-0.143826 0.205497,-0.172373 -0.0234262,-0.0342131 -0.0156901,-0.0209201 -0.0484868,-0.0481599 -0.100896,-0.0837895 -0.0604723,-0.0695159 -0.0580752,-0.213342 -0.0388984,0.0152543 -0.101223,0.0645038 -0.124758,0.0696248 -0.0360654,0.00795401 -0.106017,-0.0358475 -0.154831,-0.0484868z"/>
  <polygon class="fil3" points="1.51246,12.479 1.54842,12.528 2.29544,12.3104 2.28531,12.2031 "/>
 </g>
</svg>
